<svg width="32" height="32" viewBox="0 0 32 32" fill="none" xmlns="http://www.w3.org/2000/svg">
  <defs>
    <linearGradient id="pinGradient" x1="16" y1="2" x2="16" y2="30" gradientUnits="userSpaceOnUse">
      <stop offset="0" stop-color="#38BDF8"/>
      <stop offset="1" stop-color="#0EA5E9"/>
    </linearGradient>
  </defs>
  <path d="M16 2.75C11.58 2.75 8 6.29 8 10.67C8 15.95 14.3 22.78 15.55 24.08C15.8 24.34 16.2 24.34 16.45 24.08C17.7 22.78 24 15.95 24 10.67C24 6.29 20.42 2.75 16 2.75Z" fill="url(#pinGradient)"/>
  <path d="M18.2 9.1C17.78 8.48 17.04 8.08 16.12 8.08C14.64 8.08 13.5 9.1 13.5 10.56C13.5 11.97 14.5 12.92 15.96 12.99L15.77 13.73C15.6 14.4 15.3 14.67 14.72 14.67C14.36 14.67 14 14.58 13.7 14.43L13.32 15.46C13.74 15.68 14.32 15.82 14.9 15.82C16.04 15.82 16.76 15.29 17.08 14.06L18.2 9.1ZM16 9.27C16.64 9.27 17.04 9.66 17.04 10.29C17.04 10.96 16.56 11.44 15.86 11.44C15.18 11.44 14.78 11.03 14.78 10.4C14.78 9.73 15.24 9.27 16 9.27Z" fill="white"/>
</svg>
